<svg width="362" height="212" viewBox="0 0 362 212" fill="none" xmlns="http://www.w3.org/2000/svg">
<g filter="url(#filter0_d)">
<rect x="67" y="19" width="266" height="154" stroke="#BDBDBD" stroke-width="10"/>
</g>
<path d="M27.264 56C29.9093 57.024 32 58.496 33.536 60.416C35.072 62.2933 35.84 64.4907 35.84 67.008C35.84 69.952 35.1147 72.4053 33.664 74.368C32.256 76.288 30.3787 77.7173 28.032 78.656C25.728 79.552 23.1893 80 20.416 80H6.656V33.728H18.624C23.36 33.728 27.0293 34.7093 29.632 36.672C32.2347 38.592 33.536 41.4933 33.536 45.376C33.536 47.808 32.9813 49.9413 31.872 51.776C30.8053 53.568 29.2693 54.976 27.264 56ZM12.864 53.952H19.904C22.2933 53.952 24.0853 53.2693 25.28 51.904C26.5173 50.5387 27.136 48.7893 27.136 46.656C27.136 44.3093 26.4107 42.56 24.96 41.408C23.5093 40.256 21.4827 39.68 18.88 39.68H12.864V53.952ZM20.16 74.24C22.848 74.24 25.0667 73.6427 26.816 72.448C28.5653 71.2107 29.44 69.4187 29.44 67.072C29.44 64.64 28.48 62.848 26.56 61.696C24.6827 60.544 22.4 59.968 19.712 59.968H12.864V74.24H20.16ZM50.761 30.4V80H44.809V30.4H50.761ZM58.8175 66.496C58.8175 63.8933 59.4362 61.5253 60.6735 59.392C61.9535 57.216 63.7028 55.5093 65.9215 54.272C68.1828 53.0347 70.7215 52.416 73.5375 52.416C76.3535 52.416 78.8495 53.0347 81.0255 54.272C83.2442 55.5093 84.9508 57.1947 86.1455 59.328C87.3828 61.4613 88.0015 63.8507 88.0015 66.496C88.0015 69.1413 87.3828 71.552 86.1455 73.728C84.9508 75.8613 83.2442 77.5467 81.0255 78.784C78.8068 80.0213 76.2682 80.64 73.4095 80.64C70.6362 80.64 68.1402 80.064 65.9215 78.912C63.7028 77.7173 61.9535 76.0533 60.6735 73.92C59.4362 71.7867 58.8175 69.312 58.8175 66.496ZM64.8335 66.56C64.8335 68.224 65.1962 69.76 65.9215 71.168C66.6895 72.576 67.7135 73.6853 68.9935 74.496C70.3162 75.3067 71.7668 75.712 73.3455 75.712C75.8202 75.712 77.8682 74.8373 79.4895 73.088C81.1108 71.3387 81.9215 69.1627 81.9215 66.56C81.9215 63.9573 81.1108 61.7813 79.4895 60.032C77.8682 58.24 75.8202 57.344 73.3455 57.344C71.7242 57.344 70.2735 57.7707 68.9935 58.624C67.7135 59.4347 66.6895 60.544 65.9215 61.952C65.1962 63.36 64.8335 64.896 64.8335 66.56ZM123.965 53.504V80.192C123.965 82.624 123.346 84.8213 122.109 86.784C120.871 88.7467 119.101 90.304 116.797 91.456C114.535 92.608 111.869 93.184 108.797 93.184C106.109 93.184 103.783 92.736 101.821 91.84C99.9005 90.944 97.9592 89.6213 95.9965 87.872L99.5165 83.776C100.967 85.1413 102.418 86.1653 103.869 86.848C105.319 87.5733 106.919 87.936 108.669 87.936C111.613 87.936 113.874 87.232 115.453 85.824C117.074 84.416 117.906 82.5173 117.949 80.128L118.013 75.136C117.031 76.8 115.581 78.144 113.661 79.168C111.783 80.1493 109.607 80.64 107.133 80.64C104.701 80.64 102.461 80.0213 100.413 78.784C98.3645 77.5467 96.7218 75.8613 95.4845 73.728C94.2898 71.5947 93.6925 69.2267 93.6925 66.624C93.6925 63.936 94.3112 61.5253 95.5485 59.392C96.8285 57.216 98.5352 55.5093 100.669 54.272C102.802 53.0347 105.085 52.416 107.517 52.416C109.778 52.416 111.869 52.864 113.789 53.76C115.709 54.656 117.138 55.808 118.077 57.216L118.525 53.504H123.965ZM108.861 75.712C111.122 75.712 113.085 75.0933 114.749 73.856C116.413 72.6187 117.501 70.9973 118.013 68.992V63.744C117.415 61.824 116.285 60.288 114.621 59.136C112.957 57.9413 111.037 57.344 108.861 57.344C106.258 57.344 104.082 58.1973 102.333 59.904C100.583 61.6107 99.7085 63.7867 99.7085 66.432C99.7085 68.1387 100.114 69.696 100.925 71.104C101.735 72.512 102.845 73.6427 104.253 74.496C105.661 75.3067 107.197 75.712 108.861 75.712ZM185.215 80L181.375 74.88C180.01 76.6293 178.196 78.0373 175.935 79.104C173.716 80.128 171.178 80.64 168.319 80.64C165.418 80.64 162.794 80.0427 160.447 78.848C158.143 77.6533 156.33 76.032 155.007 73.984C153.684 71.8933 153.023 69.5467 153.023 66.944C153.023 64.768 153.556 62.7627 154.623 60.928C155.732 59.0507 157.204 57.4507 159.039 56.128C160.916 54.8053 162.943 53.8667 165.119 53.312L163.071 50.624C160.895 47.424 159.807 44.5653 159.807 42.048C159.807 40.2133 160.255 38.4853 161.151 36.864C162.09 35.2427 163.412 33.9413 165.119 32.96C166.868 31.9787 168.895 31.488 171.199 31.488C173.546 31.488 175.722 31.9573 177.727 32.896C179.775 33.8347 181.482 35.0293 182.847 36.48L179.775 40.64C176.874 38.0373 174.335 36.736 172.159 36.736C170.367 36.736 168.916 37.2907 167.807 38.4C166.74 39.5093 166.207 40.8747 166.207 42.496C166.207 44.032 166.911 45.8667 168.319 48L180.607 64.32L185.023 52.8H190.783L184.319 69.248L192.447 80H185.215ZM169.087 75.072C171.178 75.072 172.97 74.6667 174.463 73.856C175.999 73.0027 177.194 71.8933 178.047 70.528L168.447 57.728C166.911 57.8133 165.439 58.2613 164.031 59.072C162.666 59.8827 161.556 60.9707 160.703 62.336C159.892 63.6587 159.487 65.1093 159.487 66.688C159.487 69.12 160.404 71.1253 162.239 72.704C164.116 74.2827 166.399 75.072 169.087 75.072Z" fill="#FF5D00"/>
<path d="M46.976 97.728V145.536H46.784L12.8 111.04L12.928 144H6.656V96.32H6.976L40.896 131.2L40.768 97.728H46.976ZM71.225 139.52C73.4437 139.52 75.5983 138.752 77.689 137.216L80.441 141.632C79.033 142.571 77.497 143.317 75.833 143.872C74.2117 144.384 72.633 144.64 71.097 144.64C68.153 144.64 65.5717 144.043 63.353 142.848C61.177 141.611 59.4917 139.925 58.297 137.792C57.1023 135.659 56.505 133.248 56.505 130.56C56.505 127.957 57.145 125.589 58.425 123.456C59.7477 121.28 61.5397 119.573 63.801 118.336C66.0623 117.056 68.537 116.416 71.225 116.416C74.681 116.416 77.561 117.44 79.865 119.488C82.2117 121.493 83.8117 124.309 84.665 127.936L63.673 135.296C64.441 136.619 65.465 137.664 66.745 138.432C68.0677 139.157 69.561 139.52 71.225 139.52ZM70.777 121.152C68.345 121.152 66.3397 122.005 64.761 123.712C63.1823 125.419 62.393 127.595 62.393 130.24C62.393 130.88 62.4143 131.371 62.457 131.712L77.881 126.016C77.241 124.565 76.3237 123.392 75.129 122.496C73.977 121.6 72.5263 121.152 70.777 121.152ZM128.109 117.504L115.885 145.6L107.373 127.424L99.629 145.6L87.341 117.504H93.229L100.333 133.568L105.261 122.048L103.149 117.504H108.333L115.501 133.952L122.221 117.504H128.109ZM141.985 144.576C140.022 144.576 138.145 144.235 136.353 143.552C134.603 142.869 133.174 141.867 132.065 140.544L134.625 137.088C135.691 138.112 136.801 138.901 137.953 139.456C139.147 140.011 140.321 140.288 141.473 140.288C142.881 140.288 144.033 140.011 144.929 139.456C145.825 138.901 146.273 138.048 146.273 136.896C146.273 136 145.995 135.275 145.441 134.72C144.886 134.165 144.246 133.76 143.521 133.504C142.838 133.248 141.665 132.864 140.001 132.352C135.478 130.901 133.217 128.32 133.217 124.608C133.217 122.389 134.027 120.491 135.649 118.912C137.313 117.333 139.617 116.544 142.561 116.544C144.438 116.544 146.102 116.779 147.553 117.248C149.003 117.717 150.347 118.464 151.585 119.488L149.217 123.136C148.534 122.411 147.659 121.835 146.593 121.408C145.569 120.981 144.587 120.747 143.649 120.704C142.454 120.704 141.43 121.003 140.577 121.6C139.723 122.155 139.297 122.923 139.297 123.904C139.297 124.715 139.574 125.397 140.129 125.952C140.683 126.464 141.259 126.848 141.857 127.104C142.454 127.317 143.627 127.701 145.377 128.256C147.553 128.981 149.238 129.92 150.433 131.072C151.67 132.224 152.289 133.781 152.289 135.744C152.289 138.304 151.393 140.416 149.601 142.08C147.809 143.744 145.27 144.576 141.985 144.576Z" fill="#3B363C"/>
<defs>
<filter id="filter0_d" x="38" y="0" width="324" height="212" filterUnits="userSpaceOnUse" color-interpolation-filters="sRGB">
<feFlood flood-opacity="0" result="BackgroundImageFix"/>
<feColorMatrix in="SourceAlpha" type="matrix" values="0 0 0 0 0 0 0 0 0 0 0 0 0 0 0 0 0 0 127 0"/>
<feOffset dy="10"/>
<feGaussianBlur stdDeviation="12"/>
<feColorMatrix type="matrix" values="0 0 0 0 0 0 0 0 0 0 0 0 0 0 0 0 0 0 0.1 0"/>
<feBlend mode="multiply" in2="BackgroundImageFix" result="effect1_dropShadow"/>
<feBlend mode="normal" in="SourceGraphic" in2="effect1_dropShadow" result="shape"/>
</filter>
</defs>
</svg>
