<svg width="386" height="218" viewBox="0 0 386 218" fill="none" xmlns="http://www.w3.org/2000/svg">
<g filter="url(#filter0_d)">
<rect x="29" y="19" width="266" height="160" stroke="#CDCDCD" stroke-width="10"/>
</g>
<path d="M133.776 59.896C133.776 55.672 134.843 51.7467 136.976 48.12C139.109 44.4933 141.968 41.6133 145.552 39.48C149.179 37.304 153.125 36.216 157.392 36.216C161.616 36.216 165.541 37.304 169.168 39.48C172.795 41.6133 175.675 44.4933 177.808 48.12C179.984 51.7467 181.072 55.672 181.072 59.896C181.072 64.1627 180.005 68.1093 177.872 71.736C175.739 75.3627 172.837 78.2427 169.168 80.376C165.541 82.4667 161.616 83.512 157.392 83.512C153.125 83.512 149.179 82.4667 145.552 80.376C141.925 78.2853 139.045 75.448 136.912 71.864C134.821 68.2373 133.776 64.248 133.776 59.896ZM140.176 59.96C140.176 63.1173 140.944 66.04 142.48 68.728C144.016 71.416 146.107 73.5493 148.752 75.128C151.44 76.7067 154.363 77.496 157.52 77.496C160.677 77.496 163.557 76.728 166.16 75.192C168.805 73.6133 170.875 71.48 172.368 68.792C173.904 66.0613 174.672 63.096 174.672 59.896C174.672 56.696 173.904 53.7307 172.368 51C170.832 48.2693 168.741 46.1147 166.096 44.536C163.451 42.9573 160.549 42.168 157.392 42.168C154.235 42.168 151.333 42.9787 148.688 44.6C146.043 46.1787 143.952 48.3333 142.416 51.064C140.923 53.7947 140.176 56.76 140.176 59.96ZM214.699 56.504V83H209.323L208.939 77.944C208.043 79.736 206.656 81.208 204.779 82.36C202.902 83.4693 200.811 84.024 198.507 84.024C196.075 84.024 194.07 83.2987 192.491 81.848C190.955 80.3547 190.144 78.4347 190.059 76.088V56.504H196.011V73.976C196.096 75.4693 196.523 76.664 197.291 77.56C198.102 78.4133 199.296 78.8613 200.875 78.904C202.326 78.904 203.648 78.4773 204.843 77.624C206.038 76.728 206.976 75.512 207.659 73.976C208.384 72.44 208.747 70.7333 208.747 68.856V56.504H214.699ZM230.819 62.776C231.502 61.3253 232.462 60.0453 233.699 58.936C234.979 57.8267 236.323 56.9733 237.731 56.376C239.139 55.7787 240.376 55.4587 241.443 55.416L241.187 61.368C239.267 61.2827 237.518 61.6667 235.939 62.52C234.403 63.3733 233.187 64.568 232.291 66.104C231.438 67.5973 231.011 69.1973 231.011 70.904V83H225.059V56.504H230.371L230.819 62.776Z" fill="#FF5D00"/>
<path d="M143.76 108.856V120.568H150.992V125.304H143.76V147H137.744V125.304H132.88V120.568H137.744V108.856H143.76ZM174.695 119.48C177.169 119.48 179.217 120.227 180.839 121.72C182.46 123.171 183.292 125.069 183.335 127.416V147H177.319V129.464C177.233 127.971 176.785 126.797 175.975 125.944C175.164 125.091 173.948 124.643 172.327 124.6C170.791 124.6 169.404 125.027 168.167 125.88C166.929 126.733 165.948 127.928 165.223 129.464C164.54 131 164.199 132.707 164.199 134.584V147H158.247V97.4H164.071V125.304C165.052 123.555 166.46 122.147 168.295 121.08C170.172 120.013 172.305 119.48 174.695 119.48ZM191.318 133.496C191.318 130.893 191.936 128.525 193.174 126.392C194.454 124.216 196.203 122.509 198.422 121.272C200.683 120.035 203.222 119.416 206.038 119.416C208.854 119.416 211.35 120.035 213.526 121.272C215.744 122.509 217.451 124.195 218.646 126.328C219.883 128.461 220.502 130.851 220.502 133.496C220.502 136.141 219.883 138.552 218.646 140.728C217.451 142.861 215.744 144.547 213.526 145.784C211.307 147.021 208.768 147.64 205.91 147.64C203.136 147.64 200.64 147.064 198.422 145.912C196.203 144.717 194.454 143.053 193.174 140.92C191.936 138.787 191.318 136.312 191.318 133.496ZM197.334 133.56C197.334 135.224 197.696 136.76 198.422 138.168C199.19 139.576 200.214 140.685 201.494 141.496C202.816 142.307 204.267 142.712 205.846 142.712C208.32 142.712 210.368 141.837 211.99 140.088C213.611 138.339 214.422 136.163 214.422 133.56C214.422 130.957 213.611 128.781 211.99 127.032C210.368 125.24 208.32 124.344 205.846 124.344C204.224 124.344 202.774 124.771 201.494 125.624C200.214 126.435 199.19 127.544 198.422 128.952C197.696 130.36 197.334 131.896 197.334 133.56ZM253.137 120.504V147H247.761L247.377 141.944C246.481 143.736 245.094 145.208 243.217 146.36C241.339 147.469 239.249 148.024 236.945 148.024C234.513 148.024 232.507 147.299 230.929 145.848C229.393 144.355 228.582 142.435 228.497 140.088V120.504H234.449V137.976C234.534 139.469 234.961 140.664 235.729 141.56C236.539 142.413 237.734 142.861 239.312 142.904C240.763 142.904 242.086 142.477 243.281 141.624C244.475 140.728 245.414 139.512 246.097 137.976C246.822 136.44 247.185 134.733 247.185 132.856V120.504H253.137ZM291.465 120.504V147.192C291.465 149.624 290.846 151.821 289.609 153.784C288.371 155.747 286.601 157.304 284.297 158.456C282.035 159.608 279.369 160.184 276.297 160.184C273.609 160.184 271.283 159.736 269.321 158.84C267.401 157.944 265.459 156.621 263.497 154.872L267.017 150.776C268.467 152.141 269.918 153.165 271.369 153.848C272.819 154.573 274.419 154.936 276.169 154.936C279.113 154.936 281.374 154.232 282.953 152.824C284.574 151.416 285.406 149.517 285.449 147.128L285.513 142.136C284.531 143.8 283.081 145.144 281.161 146.168C279.283 147.149 277.107 147.64 274.633 147.64C272.201 147.64 269.961 147.021 267.913 145.784C265.865 144.547 264.222 142.861 262.985 140.728C261.79 138.595 261.193 136.227 261.193 133.624C261.193 130.936 261.811 128.525 263.049 126.392C264.329 124.216 266.035 122.509 268.169 121.272C270.302 120.035 272.585 119.416 275.017 119.416C277.278 119.416 279.369 119.864 281.289 120.76C283.209 121.656 284.638 122.808 285.577 124.216L286.025 120.504H291.465ZM276.361 142.712C278.622 142.712 280.585 142.093 282.249 140.856C283.913 139.619 285.001 137.997 285.513 135.992V130.744C284.915 128.824 283.785 127.288 282.121 126.136C280.457 124.941 278.537 124.344 276.361 124.344C273.758 124.344 271.582 125.197 269.833 126.904C268.083 128.611 267.209 130.787 267.209 133.432C267.209 135.139 267.614 136.696 268.425 138.104C269.235 139.512 270.345 140.643 271.753 141.496C273.161 142.307 274.697 142.712 276.361 142.712ZM318.257 119.48C320.732 119.48 322.78 120.227 324.401 121.72C326.022 123.171 326.854 125.069 326.897 127.416V147H320.881V129.464C320.796 127.971 320.348 126.797 319.537 125.944C318.726 125.091 317.51 124.643 315.889 124.6C314.353 124.6 312.966 125.027 311.729 125.88C310.492 126.733 309.51 127.928 308.785 129.464C308.102 131 307.761 132.707 307.761 134.584V147H301.809V97.4H307.633V125.304C308.614 123.555 310.022 122.147 311.857 121.08C313.734 120.013 315.868 119.48 318.257 119.48ZM345.76 108.856V120.568H352.992V125.304H345.76V147H339.744V125.304H334.88V120.568H339.744V108.856H345.76Z" fill="#3B363C"/>
<defs>
<filter id="filter0_d" x="0" y="0" width="324" height="218" filterUnits="userSpaceOnUse" color-interpolation-filters="sRGB">
<feFlood flood-opacity="0" result="BackgroundImageFix"/>
<feColorMatrix in="SourceAlpha" type="matrix" values="0 0 0 0 0 0 0 0 0 0 0 0 0 0 0 0 0 0 127 0"/>
<feOffset dy="10"/>
<feGaussianBlur stdDeviation="12"/>
<feColorMatrix type="matrix" values="0 0 0 0 0 0 0 0 0 0 0 0 0 0 0 0 0 0 0.1 0"/>
<feBlend mode="multiply" in2="BackgroundImageFix" result="effect1_dropShadow"/>
<feBlend mode="normal" in="SourceGraphic" in2="effect1_dropShadow" result="shape"/>
</filter>
</defs>
</svg>
